<svg width="16" height="16" viewBox="0 0 16 16" fill="none" xmlns="http://www.w3.org/2000/svg">
<g clip-path="url(#clip0_36_20)">
<path d="M0.776123 11.3506C0.985243 11.0196 1.42363 10.9208 1.75464 11.1299C3.04223 11.9431 5.23519 12.9816 7.58081 13.4297C9.9343 13.8793 12.3141 13.7135 14.1267 12.3037C14.4358 12.0633 14.8814 12.1197 15.1218 12.4287C15.3622 12.7378 15.3068 13.1834 14.9978 13.4238C12.7269 15.19 9.86047 15.3084 7.31519 14.8223C4.76206 14.3345 2.40331 13.2174 0.996826 12.3291C0.665822 12.12 0.56705 11.6816 0.776123 11.3506ZM7.23511 0.799805C7.41979 0.799844 7.59507 0.845454 7.74683 0.949219C7.87895 1.03962 7.9784 1.16415 8.04956 1.30859L8.07788 1.37109L8.07983 1.375L8.08081 1.37793L9.95679 6.16895L11.5759 1.40625C11.6359 1.22695 11.7355 1.06901 11.8875 0.958008C12.0404 0.846466 12.2216 0.799811 12.4109 0.799805H13.1609C13.3443 0.799805 13.5351 0.835576 13.6833 0.954102C13.8434 1.08232 13.904 1.26623 13.9041 1.45117C13.904 1.556 13.8786 1.66096 13.8416 1.76074L10.2126 11.9287C10.1517 12.1084 10.0497 12.2653 9.89526 12.375C9.73968 12.4855 9.55541 12.5312 9.36304 12.5312H8.81226C8.62897 12.5312 8.43893 12.4953 8.29077 12.377C8.13054 12.2487 8.06912 12.0649 8.06909 11.8799C8.06909 11.7735 8.09108 11.6704 8.13062 11.5723L8.98315 9.05762C8.94551 9.00327 8.91153 8.9446 8.88062 8.88281L8.87769 8.87793L8.87476 8.87207L5.69019 1.79688C5.63531 1.6836 5.60327 1.56219 5.60327 1.43555C5.60333 1.25482 5.66406 1.07454 5.82202 0.949219C5.96741 0.834001 6.15314 0.799874 6.33081 0.799805H7.23511Z" fill="black"/>
</g>
<defs>
<clipPath id="clip0_36_20">
<rect width="16" height="16" rx="2" fill="white"/>
</clipPath>
</defs>
</svg>
