<svg width="109" height="66" viewBox="0 0 109 66" fill="none" xmlns="http://www.w3.org/2000/svg">
<path d="M33.8868 50.6649C34.6242 49.4978 36.1678 49.1494 37.3351 49.8866C41.8755 52.7542 49.6101 56.4139 57.882 57.994C66.181 59.5793 74.5732 58.9976 80.965 54.0262C82.0548 53.1787 83.6261 53.3749 84.4738 54.4647C85.3214 55.5545 85.125 57.1258 84.0353 57.9735C76.0272 64.202 65.9193 64.6198 56.9435 62.9052C47.9405 61.1853 39.6248 57.2455 34.6652 54.1132C33.4979 53.3758 33.1496 51.8322 33.8868 50.6649ZM56.6613 13.4598C57.313 13.4599 57.9324 13.6189 58.4679 13.9852C58.9338 14.304 59.2814 14.7425 59.5323 15.2518L59.6339 15.4745L59.6398 15.4872L59.6447 15.4989L66.2599 32.3915L71.9679 15.5966C72.1797 14.9639 72.532 14.4079 73.0685 14.0165C73.6077 13.6231 74.2455 13.4598 74.9132 13.4598H77.5587C78.2054 13.4598 78.8759 13.5849 79.3986 14.0028C79.9638 14.455 80.1788 15.1031 80.1788 15.7557C80.1788 16.1255 80.0887 16.4955 79.9581 16.8475L67.1613 52.704C66.9465 53.3376 66.5867 53.8893 66.0421 54.2762C65.4935 54.6661 64.8455 54.826 64.1671 54.826H62.2228C61.576 54.826 60.9055 54.7012 60.3829 54.2831C59.8178 53.8309 59.6027 53.1827 59.6027 52.5302C59.6027 52.1545 59.6817 51.7915 59.8214 51.4452L62.8263 42.579C62.6931 42.3867 62.5723 42.1795 62.463 41.9608L62.4532 41.9432L62.4454 41.9247L51.213 16.9764C51.0193 16.5768 50.9093 16.1488 50.9093 15.702C50.9093 15.0644 51.1216 14.4293 51.6788 13.9872C52.192 13.5802 52.8475 13.4599 53.4747 13.4598H56.6613ZM19.7736 13.4598C20.5216 13.4598 21.2668 13.6476 21.8175 14.1981C22.3682 14.7488 22.5558 15.4939 22.5558 16.2421V41.9999C22.5558 45.8639 21.561 48.9608 19.4132 51.1171L19.4142 51.118C17.3006 53.3127 14.3061 54.3397 10.5939 54.3397C9.46996 54.3397 8.2836 54.2045 7.03821 53.9403C5.80117 53.6779 4.66359 53.3374 3.62903 52.9159L3.62512 52.9149C3.2177 52.7472 2.82967 52.504 2.54016 52.1464C2.23768 51.7726 2.08808 51.3281 2.08801 50.8563C2.08801 49.8219 2.74311 49.0935 3.57434 48.6317L3.59192 48.6219L4.50989 48.1366C5.01322 47.8638 5.55186 47.6962 6.11243 47.6962C6.71696 47.6963 7.28642 47.8956 7.80969 48.2157L8.03137 48.3602L8.04309 48.368C8.36297 48.5965 8.64925 48.7469 8.90247 48.8378L9.14465 48.91L9.17981 48.9178L9.21399 48.9286C9.56159 49.0355 10.0154 49.1005 10.5939 49.1005C11.4058 49.1005 12.0973 48.7135 12.6847 47.6268C13.2851 46.5161 13.6437 44.6839 13.6437 41.9999V16.2421C13.6437 15.494 13.8313 14.7488 14.382 14.1981C14.9326 13.6475 15.6778 13.4599 16.4259 13.4598H19.7736ZM38.4464 12.9198C41.2798 12.9198 43.8121 13.6115 46.007 15.0223C48.1747 16.3796 49.8568 18.2407 51.0499 20.5839L51.2745 21.0282C52.3594 23.2705 52.8927 25.7675 52.8927 28.4999C52.8927 31.3026 52.3236 33.8553 51.1642 36.1356L51.1632 36.1346C50.0428 38.409 48.4495 40.2212 46.3849 41.5458C44.2958 42.8859 41.8708 43.5399 39.1486 43.5399C36.2922 43.5399 33.7342 42.8903 31.5079 41.5624L31.4991 41.5575L31.4904 41.5516C29.3215 40.196 27.6176 38.3544 26.3859 36.0448L26.38 36.0331C25.182 33.7143 24.5949 31.1057 24.5948 28.2303C24.5948 25.331 25.1408 22.7117 26.2599 20.3964L26.2657 20.3846C27.4208 18.0746 29.0332 16.2415 31.1027 14.9139L31.1095 14.91C33.2328 13.5731 35.6908 12.9198 38.4464 12.9198ZM92.8683 12.9198C95.7017 12.9198 98.234 13.6115 100.429 15.0223C102.597 16.3796 104.279 18.2407 105.472 20.5839L105.696 21.0282C106.781 23.2705 107.315 25.7675 107.315 28.4999C107.315 31.3026 106.746 33.8553 105.586 36.1356L105.585 36.1346C104.465 38.409 102.871 40.2212 100.807 41.5458C98.7177 42.8859 96.2927 43.5399 93.5704 43.5399C90.7141 43.5399 88.1561 42.8903 85.9298 41.5624L85.921 41.5575L85.9122 41.5516C83.7434 40.196 82.0395 38.3544 80.8077 36.0448L80.8019 36.0331C79.6039 33.7143 79.0168 31.1057 79.0167 28.2303C79.0167 25.331 79.5627 22.7117 80.6818 20.3964L80.6876 20.3846C81.8427 18.0746 83.4551 16.2415 85.5245 14.9139L85.5314 14.91C87.6547 13.5731 90.1127 12.9198 92.8683 12.9198ZM38.4464 18.16C37.3007 18.1601 36.3436 18.5461 35.5226 19.3378L35.5157 19.3446L35.5089 19.3505C34.6586 20.1401 33.9616 21.2895 33.4591 22.8641L33.4572 22.87C32.9561 24.4067 32.6964 26.1894 32.6964 28.2303C32.6965 31.956 33.4065 34.49 34.6378 36.0292C35.9061 37.5792 37.3935 38.2997 39.1486 38.2997C40.5324 38.2997 41.5485 37.8649 42.3048 37.0526C43.1434 36.1519 43.7764 34.9591 44.1749 33.4315C44.5843 31.8621 44.7902 30.2191 44.7902 28.4999C44.7901 25.3127 44.1667 22.7903 42.9933 20.8671C41.8614 19.012 40.3695 18.16 38.4464 18.16ZM92.8683 18.16C91.7225 18.1601 90.7655 18.5461 89.9445 19.3378L89.9376 19.3446L89.9308 19.3505C89.0805 20.1401 88.3835 21.2895 87.881 22.8641L87.879 22.87C87.3779 24.4067 87.1183 26.1894 87.1183 28.2303C87.1183 31.956 87.8283 34.49 89.0597 36.0292C90.328 37.5792 91.8154 38.2997 93.5704 38.2997C94.9543 38.2997 95.9704 37.8649 96.7267 37.0526C97.5653 36.1519 98.1983 34.9591 98.5968 33.4315C99.0062 31.8621 99.212 30.2191 99.212 28.4999C99.212 25.3127 98.5886 22.7903 97.4152 20.8671C96.2832 19.012 94.7913 18.16 92.8683 18.16ZM19.7736 2.12C20.5217 2.12 21.2668 2.30768 21.8175 2.85828C22.3682 3.40896 22.5558 4.15408 22.5558 4.90222V8.19617C22.5558 8.94417 22.368 9.68852 21.8175 10.2391C21.2668 10.7898 20.5217 10.9784 19.7736 10.9784H16.4259C15.6778 10.9784 14.9326 10.7898 14.382 10.2391C13.8317 9.68854 13.6437 8.94405 13.6437 8.19617V4.90222C13.6437 4.15415 13.8314 3.40894 14.382 2.85828C14.9326 2.30762 15.6778 2.12001 16.4259 2.12H19.7736Z" fill="black"/>
</svg>
